Coordinates
version=1
nRows=9
nColumns=24
inDegrees=yes

Units are S.I. units (second, meters, Newtons, ...)
Angles are in degrees.

endheader
time	pelvis_tilt	pelvis_list	pelvis_rotation	pelvis_tx	pelvis_ty	pelvis_tz	hip_flexion_r	hip_adduction_r	hip_rotation_r	knee_angle_r	ankle_angle_r	subtalar_angle_r	mtp_angle_r	hip_flexion_l	hip_adduction_l	hip_rotation_l	knee_angle_l	ankle_angle_l	subtalar_angle_l	mtp_angle_l	lumbar_extension	lumbar_bending	lumbar_rotation
      1.32316667	      1.55995783	     -1.19588636	     -4.09545929	      0.92158283	      0.97583838	      0.32689224	    -23.84402442	      1.85058667	      0.69124854	     -4.30666150	     16.36020991	     -0.21029316	     -2.67962496	     21.94260707	     -2.76930617	      0.61697968	      8.01400893	      3.40068009	     -3.81820184	     -2.68492855	    -15.19555637	      6.88032504	      7.41910939
      1.32733333	      1.55108224	     -1.08872327	     -4.15909703	      0.92747472	      0.97510329	      0.32655464	    -24.05483344	      1.65729188	      0.65399110	     -4.55133623	     16.23463538	     -0.15559118	     -2.59632799	     22.04689535	     -2.63442452	      0.83171537	      7.47114756	      3.49292432	     -3.90243772	     -2.67714057	    -15.14703538	      6.69143020	      7.45095739
      1.33150000	      1.53462104	     -0.97704484	     -4.21232107	      0.93340136	      0.97438158	      0.32619463	    -24.25022562	      1.46433592	      0.60394097	     -4.81190500	     16.08869785	     -0.09840881	     -2.51679354	     22.16435610	     -2.48711004	      1.04909110	      6.87313863	      3.54739269	     -4.00804540	     -2.66561178	    -15.08969658	      6.50085242	      7.49553992
      1.33566667	      1.48331399	     -0.86389376	     -4.25674519	      0.93937287	      0.97362406	      0.32577328	    -24.38666407	      1.26942212	      0.49247767	     -5.11897705	     15.97453007	      0.08257724	     -2.22816244	     22.32964105	     -2.32950755	      1.27737675	      6.22335041	      3.53800647	     -4.14996519	     -2.63118702	    -15.00092866	      6.33050650	      7.60871446
      1.33983333	      1.48119934	     -0.72187909	     -4.32374435	      0.94539944	      0.97297342	      0.32539836	    -24.58633469	      1.03924943	      0.46825321	     -5.39850758	     15.77294806	      0.05419174	     -2.17035776	     22.42186529	     -2.14397865	      1.44975742	      5.56746633	      3.51429659	     -4.29956831	     -2.62144128	    -14.95888593	      6.11748389	      7.60937144
      1.34400000	      1.45834718	     -0.59756590	     -4.34655460	      0.95146133	      0.97228726	      0.32494937	    -24.76886395	      0.84482211	      0.39437078	     -5.66201864	     15.45991691	     -0.00925918	      2.56638609	     22.52196647	     -1.95922818	      1.78755090	      4.93614429	      3.33464409	     -4.64289689	     -1.86714449	    -14.89724186	      5.92464207	      7.63829482
      1.34816667	      1.42764567	     -0.43447890	     -4.41242868	      0.95761252	      0.97164614	      0.32454257	    -24.92778843	      0.59431174	      0.34742954	     -5.96104270	     15.20001012	     -0.00597208	      2.57952276	     22.64077639	     -1.74362272	      1.91291622	      4.24116863	      3.15526115	     -4.78530508	     -1.86896248	    -14.79414246	      5.67739557	      7.67426918
      1.35233333	      1.37096192	     -0.26542584	     -4.45501670	      0.96380435	      0.97098339	      0.32408500	    -25.05076913	      0.34848292	      0.27408808	     -6.27883556	     14.93721473	      0.01495382	      2.63028874	     22.77946648	     -1.51044037	      2.11823414	      3.54899413	      2.90271363	     -5.02845572	     -1.86076426	    -14.67682427	      5.42184955	      7.74281650
      1.35650000	      1.31355067	     -0.11040984	     -4.50526357	      0.97000598	      0.97034503	      0.32360310	    -25.14542807	      0.11164094	      0.18923662	     -6.65101255	     14.67124942	      0.03526382	      2.81108976	     22.89582033	     -1.28733067	      2.39833967	      2.89333978	      2.48824074	     -5.55245226	     -1.82046008	    -14.55473049	      5.20714870	      7.82409288
